<?xml version="1.0" encoding="UTF-8" standalone="no"?>
<!DOCTYPE svg PUBLIC "-//W3C//DTD SVG 1.1//EN"
 "http://www.w3.org/Graphics/SVG/1.1/DTD/svg11.dtd">
<!-- Generated by graphviz version 2.40.1 (20161225.0304)
 -->
<!-- Title: %0 Pages: 1 -->
<svg width="466pt" height="467pt"
 viewBox="0.00 0.00 465.73 467.00" xmlns="http://www.w3.org/2000/svg" xmlns:xlink="http://www.w3.org/1999/xlink">
<g id="graph0" class="graph" transform="scale(1 1) rotate(0) translate(4 463)">
<title>%0</title>
<polygon fill="#ffffff" stroke="transparent" points="-4,4 -4,-463 461.732,-463 461.732,4 -4,4"/>
<!-- fibos_blocks -->
<g id="node1" class="node">
<title>fibos_blocks</title>
<g id="a_node1"><a xlink:title="fibos_blocks">
<polygon fill="#ffffff" stroke="#000000" points="0,-322.5 0,-458.5 130.758,-458.5 130.758,-322.5 0,-322.5"/>
<text text-anchor="middle" x="65.379" y="-445.5" font-family="Helvetica,sans-Serif" font-size="10.00" fill="#000000">fibos_blocks</text>
<polyline fill="none" stroke="#000000" points="0,-438.5 130.758,-438.5 "/>
<text text-anchor="start" x="8" y="-425.5" font-family="Helvetica,sans-Serif" font-size="10.00" fill="#000000">+ id : serial</text>
<text text-anchor="start" x="8" y="-413.5" font-family="Helvetica,sans-Serif" font-size="10.00" fill="#000000">+ block_num : integer</text>
<text text-anchor="start" x="8" y="-401.5" font-family="Helvetica,sans-Serif" font-size="10.00" fill="#000000">+ block_time : date</text>
<text text-anchor="start" x="8" y="-389.5" font-family="Helvetica,sans-Serif" font-size="10.00" fill="#000000">+ producer_block_id : text</text>
<text text-anchor="start" x="8" y="-377.5" font-family="Helvetica,sans-Serif" font-size="10.00" fill="#000000">+ previous : text</text>
<text text-anchor="start" x="8" y="-365.5" font-family="Helvetica,sans-Serif" font-size="10.00" fill="#000000">+ producer : text</text>
<text text-anchor="start" x="8" y="-353.5" font-family="Helvetica,sans-Serif" font-size="10.00" fill="#000000">+ status : enum</text>
<text text-anchor="start" x="8" y="-341.5" font-family="Helvetica,sans-Serif" font-size="10.00" fill="#000000">+ createdAt : date</text>
<text text-anchor="start" x="8" y="-329.5" font-family="Helvetica,sans-Serif" font-size="10.00" fill="#000000">+ updatedAt : date</text>
</a>
</g>
</g>
<!-- fibos_transactions -->
<g id="node2" class="node">
<title>fibos_transactions</title>
<g id="a_node2"><a xlink:title="fibos_transactions">
<polygon fill="#ffffff" stroke="#000000" points="38,-161.5 38,-273.5 168.758,-273.5 168.758,-161.5 38,-161.5"/>
<text text-anchor="middle" x="103.379" y="-260.5" font-family="Helvetica,sans-Serif" font-size="10.00" fill="#000000">fibos_transactions</text>
<polyline fill="none" stroke="#000000" points="38,-253.5 168.758,-253.5 "/>
<text text-anchor="start" x="46" y="-240.5" font-family="Helvetica,sans-Serif" font-size="10.00" fill="#000000">+ id : serial</text>
<text text-anchor="start" x="46" y="-228.5" font-family="Helvetica,sans-Serif" font-size="10.00" fill="#000000">+ producer_block_id : text</text>
<text text-anchor="start" x="46" y="-216.5" font-family="Helvetica,sans-Serif" font-size="10.00" fill="#000000">+ trx_id : text</text>
<text text-anchor="start" x="46" y="-204.5" font-family="Helvetica,sans-Serif" font-size="10.00" fill="#000000">+ rawData : object</text>
<text text-anchor="start" x="46" y="-192.5" font-family="Helvetica,sans-Serif" font-size="10.00" fill="#000000">+ contract_action : text</text>
<text text-anchor="start" x="46" y="-180.5" font-family="Helvetica,sans-Serif" font-size="10.00" fill="#000000">+ createdAt : date</text>
<text text-anchor="start" x="46" y="-168.5" font-family="Helvetica,sans-Serif" font-size="10.00" fill="#000000">+ updatedAt : date</text>
</a>
</g>
</g>
<!-- fibos_blocks&#45;&gt;fibos_transactions -->
<g id="edge1" class="edge">
<title>fibos_blocks&#45;&gt;fibos_transactions</title>
<path fill="none" stroke="#000000" stroke-dasharray="5,2" d="M25.0524,-322.4632C23.0618,-312.2144 23.3654,-301.7993 27.478,-292 28.9205,-288.5629 30.6074,-285.2047 32.4913,-281.9342"/>
<polygon fill="#000000" stroke="#000000" points="35.4554,-283.7957 37.9056,-273.488 29.5623,-280.018 35.4554,-283.7957"/>
<text text-anchor="middle" x="55.3295" y="-295" font-family="Helvetica,sans-Serif" font-size="10.00" fill="#000000">transactions</text>
</g>
<!-- fibos_transactions&#45;&gt;fibos_blocks -->
<g id="edge2" class="edge">
<title>fibos_transactions&#45;&gt;fibos_blocks</title>
<path fill="none" stroke="#000000" stroke-dasharray="5,2" d="M91.0366,-273.6906C88.332,-286.0032 85.4215,-299.2538 82.5661,-312.2535"/>
<polygon fill="none" stroke="#000000" points="79.1246,-311.6077 80.3976,-322.1258 85.9616,-313.1096 79.1246,-311.6077"/>
<text text-anchor="middle" x="99.0475" y="-295" font-family="Helvetica,sans-Serif" font-size="10.00" fill="#000000">block</text>
</g>
<!-- fibos_accounts -->
<g id="node3" class="node">
<title>fibos_accounts</title>
<g id="a_node3"><a xlink:title="fibos_accounts">
<polygon fill="#ffffff" stroke="#000000" points="186.383,-173.5 186.383,-261.5 284.375,-261.5 284.375,-173.5 186.383,-173.5"/>
<text text-anchor="middle" x="235.379" y="-248.5" font-family="Helvetica,sans-Serif" font-size="10.00" fill="#000000">fibos_accounts</text>
<polyline fill="none" stroke="#000000" points="186.383,-241.5 284.375,-241.5 "/>
<text text-anchor="start" x="194.383" y="-228.5" font-family="Helvetica,sans-Serif" font-size="10.00" fill="#000000">+ name : text</text>
<text text-anchor="start" x="194.383" y="-216.5" font-family="Helvetica,sans-Serif" font-size="10.00" fill="#000000">+ created : date</text>
<text text-anchor="start" x="194.383" y="-204.5" font-family="Helvetica,sans-Serif" font-size="10.00" fill="#000000">+ createdAt : date</text>
<text text-anchor="start" x="194.383" y="-192.5" font-family="Helvetica,sans-Serif" font-size="10.00" fill="#000000">+ updatedAt : date</text>
<text text-anchor="start" x="194.383" y="-180.5" font-family="Helvetica,sans-Serif" font-size="10.00" fill="#000000">+ id : serial</text>
</a>
</g>
</g>
<!-- fibos_accounts&#45;&gt;fibos_accounts -->
<g id="edge3" class="edge">
<title>fibos_accounts&#45;&gt;fibos_accounts</title>
<path fill="none" stroke="#000000" stroke-dasharray="5,2" d="M284.4565,-232.0157C294.8613,-230.5417 302.375,-225.7031 302.375,-217.5 302.375,-212.2449 299.2914,-208.3706 294.3394,-205.8771"/>
<polygon fill="none" stroke="#000000" points="295.037,-202.4345 284.4565,-202.9843 293.0706,-209.1526 295.037,-202.4345"/>
<text text-anchor="middle" x="317.932" y="-214.5" font-family="Helvetica,sans-Serif" font-size="10.00" fill="#000000">creator</text>
</g>
<!-- fibos_permissions -->
<g id="node4" class="node">
<title>fibos_permissions</title>
<g id="a_node4"><a xlink:title="fibos_permissions">
<polygon fill="#ffffff" stroke="#000000" points="146.383,-12.5 146.383,-100.5 244.375,-100.5 244.375,-12.5 146.383,-12.5"/>
<text text-anchor="middle" x="195.379" y="-87.5" font-family="Helvetica,sans-Serif" font-size="10.00" fill="#000000">fibos_permissions</text>
<polyline fill="none" stroke="#000000" points="146.383,-80.5 244.375,-80.5 "/>
<text text-anchor="start" x="154.383" y="-67.5" font-family="Helvetica,sans-Serif" font-size="10.00" fill="#000000">+ pub_key : text</text>
<text text-anchor="start" x="154.383" y="-55.5" font-family="Helvetica,sans-Serif" font-size="10.00" fill="#000000">+ permission : text</text>
<text text-anchor="start" x="154.383" y="-43.5" font-family="Helvetica,sans-Serif" font-size="10.00" fill="#000000">+ createdAt : date</text>
<text text-anchor="start" x="154.383" y="-31.5" font-family="Helvetica,sans-Serif" font-size="10.00" fill="#000000">+ updatedAt : date</text>
<text text-anchor="start" x="154.383" y="-19.5" font-family="Helvetica,sans-Serif" font-size="10.00" fill="#000000">+ id : serial</text>
</a>
</g>
</g>
<!-- fibos_accounts&#45;&gt;fibos_permissions -->
<g id="edge4" class="edge">
<title>fibos_accounts&#45;&gt;fibos_permissions</title>
<path fill="none" stroke="#000000" stroke-dasharray="5,2" d="M192.8905,-173.4825C187.839,-169.0538 182.6132,-164.7971 177.379,-161 163.4334,-150.8833 151.9632,-157.7421 143.047,-143 136.453,-132.0975 137.8068,-120.4226 143.1311,-109.2901"/>
<polygon fill="#000000" stroke="#000000" points="146.2321,-110.9183 148.1764,-100.5034 140.1617,-107.4326 146.2321,-110.9183"/>
<text text-anchor="middle" x="170.045" y="-134" font-family="Helvetica,sans-Serif" font-size="10.00" fill="#000000">permissions</text>
</g>
<!-- fibos_tokens -->
<g id="node5" class="node">
<title>fibos_tokens</title>
<g id="a_node5"><a xlink:title="fibos_tokens">
<polygon fill="#ffffff" stroke="#000000" points="292.4975,-.5 292.4975,-112.5 398.2605,-112.5 398.2605,-.5 292.4975,-.5"/>
<text text-anchor="middle" x="345.379" y="-99.5" font-family="Helvetica,sans-Serif" font-size="10.00" fill="#000000">fibos_tokens</text>
<polyline fill="none" stroke="#000000" points="292.4975,-92.5 398.2605,-92.5 "/>
<text text-anchor="start" x="300.4975" y="-79.5" font-family="Helvetica,sans-Serif" font-size="10.00" fill="#000000">+ token_name : text</text>
<text text-anchor="start" x="300.4975" y="-67.5" font-family="Helvetica,sans-Serif" font-size="10.00" fill="#000000">+ token_type : text</text>
<text text-anchor="start" x="300.4975" y="-55.5" font-family="Helvetica,sans-Serif" font-size="10.00" fill="#000000">+ token_status : text</text>
<text text-anchor="start" x="300.4975" y="-43.5" font-family="Helvetica,sans-Serif" font-size="10.00" fill="#000000">+ created : date</text>
<text text-anchor="start" x="300.4975" y="-31.5" font-family="Helvetica,sans-Serif" font-size="10.00" fill="#000000">+ createdAt : date</text>
<text text-anchor="start" x="300.4975" y="-19.5" font-family="Helvetica,sans-Serif" font-size="10.00" fill="#000000">+ updatedAt : date</text>
<text text-anchor="start" x="300.4975" y="-7.5" font-family="Helvetica,sans-Serif" font-size="10.00" fill="#000000">+ id : serial</text>
</a>
</g>
</g>
<!-- fibos_accounts&#45;&gt;fibos_tokens -->
<g id="edge5" class="edge">
<title>fibos_accounts&#45;&gt;fibos_tokens</title>
<path fill="none" stroke="#000000" stroke-dasharray="5,2" d="M253.473,-173.4424C260.0366,-159.3929 268.0462,-144.1028 276.923,-131 279.7446,-126.835 282.7918,-122.6695 285.9786,-118.5557"/>
<polygon fill="#000000" stroke="#000000" points="288.7341,-120.7141 292.2568,-110.722 283.2718,-116.3364 288.7341,-120.7141"/>
<text text-anchor="middle" x="289.607" y="-134" font-family="Helvetica,sans-Serif" font-size="10.00" fill="#000000">token</text>
</g>
<!-- fibos_permissions&#45;&gt;fibos_accounts -->
<g id="edge6" class="edge">
<title>fibos_permissions&#45;&gt;fibos_accounts</title>
<path fill="none" stroke="#000000" stroke-dasharray="5,2" d="M206.379,-100.7752C211.1839,-120.1146 216.8643,-142.9783 221.9186,-163.3219"/>
<polygon fill="none" stroke="#000000" points="218.535,-164.2188 224.3429,-173.0799 225.3284,-162.531 218.535,-164.2188"/>
<text text-anchor="middle" x="234.8865" y="-134" font-family="Helvetica,sans-Serif" font-size="10.00" fill="#000000">account</text>
</g>
<!-- fibos_tokens&#45;&gt;fibos_accounts -->
<g id="edge7" class="edge">
<title>fibos_tokens&#45;&gt;fibos_accounts</title>
<path fill="none" stroke="#000000" stroke-dasharray="5,2" d="M319.4755,-112.6107C313.954,-122.9873 307.827,-133.5297 301.379,-143 296.237,-150.5522 290.4035,-158.1629 284.3835,-165.4857"/>
<polygon fill="none" stroke="#000000" points="281.5655,-163.3985 277.8019,-173.3024 286.9202,-167.9071 281.5655,-163.3985"/>
<text text-anchor="middle" x="324.936" y="-134" font-family="Helvetica,sans-Serif" font-size="10.00" fill="#000000">creator</text>
</g>
<!-- fibos_tokens_action -->
<g id="node6" class="node">
<title>fibos_tokens_action</title>
<g id="a_node6"><a xlink:title="fibos_tokens_action">
<polygon fill="#ffffff" stroke="#000000" points="235.2755,-322.5 235.2755,-458.5 375.4825,-458.5 375.4825,-322.5 235.2755,-322.5"/>
<text text-anchor="middle" x="305.379" y="-445.5" font-family="Helvetica,sans-Serif" font-size="10.00" fill="#000000">fibos_tokens_action</text>
<polyline fill="none" stroke="#000000" points="235.2755,-438.5 375.4825,-438.5 "/>
<text text-anchor="start" x="243.2755" y="-425.5" font-family="Helvetica,sans-Serif" font-size="10.00" fill="#000000">+ account_from_name : text</text>
<text text-anchor="start" x="243.2755" y="-413.5" font-family="Helvetica,sans-Serif" font-size="10.00" fill="#000000">+ account_to_name : text</text>
<text text-anchor="start" x="243.2755" y="-401.5" font-family="Helvetica,sans-Serif" font-size="10.00" fill="#000000">+ token_from_name : text</text>
<text text-anchor="start" x="243.2755" y="-389.5" font-family="Helvetica,sans-Serif" font-size="10.00" fill="#000000">+ token_to_name : text</text>
<text text-anchor="start" x="243.2755" y="-377.5" font-family="Helvetica,sans-Serif" font-size="10.00" fill="#000000">+ contract_action : text</text>
<text text-anchor="start" x="243.2755" y="-365.5" font-family="Helvetica,sans-Serif" font-size="10.00" fill="#000000">+ global_sequence : text</text>
<text text-anchor="start" x="243.2755" y="-353.5" font-family="Helvetica,sans-Serif" font-size="10.00" fill="#000000">+ createdAt : date</text>
<text text-anchor="start" x="243.2755" y="-341.5" font-family="Helvetica,sans-Serif" font-size="10.00" fill="#000000">+ updatedAt : date</text>
<text text-anchor="start" x="243.2755" y="-329.5" font-family="Helvetica,sans-Serif" font-size="10.00" fill="#000000">+ id : serial</text>
</a>
</g>
</g>
<!-- fibos_tokens_action&#45;&gt;fibos_transactions -->
<g id="edge12" class="edge">
<title>fibos_tokens_action&#45;&gt;fibos_transactions</title>
<path fill="none" stroke="#000000" stroke-dasharray="5,2" d="M235.155,-353.3921C212.2702,-339.5466 187.5987,-322.6186 167.478,-304 160.1727,-297.2401 153.1332,-289.5498 146.5649,-281.6087"/>
<polygon fill="none" stroke="#000000" points="149.143,-279.2286 140.1613,-273.6091 143.6782,-283.6032 149.143,-279.2286"/>
<text text-anchor="middle" x="192.8295" y="-295" font-family="Helvetica,sans-Serif" font-size="10.00" fill="#000000">transaction</text>
</g>
<!-- fibos_tokens_action&#45;&gt;fibos_accounts -->
<g id="edge8" class="edge">
<title>fibos_tokens_action&#45;&gt;fibos_accounts</title>
<path fill="none" stroke="#000000" stroke-dasharray="5,2" d="M235.1832,-326.6649C230.2445,-319.4905 225.9748,-311.9014 222.809,-304 218.7471,-293.8621 217.9625,-282.588 218.9335,-271.6177"/>
<polygon fill="none" stroke="#000000" points="222.4071,-272.0477 220.2751,-261.6696 215.4699,-271.1121 222.4071,-272.0477"/>
<text text-anchor="middle" x="253.664" y="-295" font-family="Helvetica,sans-Serif" font-size="10.00" fill="#000000">account_from</text>
</g>
<!-- fibos_tokens_action&#45;&gt;fibos_accounts -->
<g id="edge9" class="edge">
<title>fibos_tokens_action&#45;&gt;fibos_accounts</title>
<path fill="none" stroke="#000000" stroke-dasharray="5,2" d="M293.5008,-322.4906C290.7418,-312.087 287.401,-301.6186 283.379,-292 280.3741,-284.8137 276.6805,-277.5562 272.6882,-270.5367"/>
<polygon fill="none" stroke="#000000" points="275.6143,-268.6092 267.5008,-261.7959 269.5946,-272.1818 275.6143,-268.6092"/>
<text text-anchor="middle" x="311.835" y="-295" font-family="Helvetica,sans-Serif" font-size="10.00" fill="#000000">account_to</text>
</g>
<!-- fibos_tokens_action&#45;&gt;fibos_tokens -->
<g id="edge10" class="edge">
<title>fibos_tokens_action&#45;&gt;fibos_tokens</title>
<path fill="none" stroke="#000000" stroke-dasharray="5,2" d="M335.2996,-322.2051C337.2633,-316.1249 339.0024,-310.0001 340.379,-304 354.1805,-243.8445 354.0712,-173.2959 351.3148,-122.9441"/>
<polygon fill="none" stroke="#000000" points="354.8011,-122.6085 350.7111,-112.835 347.8136,-123.0259 354.8011,-122.6085"/>
<text text-anchor="middle" x="378.3845" y="-214.5" font-family="Helvetica,sans-Serif" font-size="10.00" fill="#000000">token_from</text>
</g>
<!-- fibos_tokens_action&#45;&gt;fibos_tokens -->
<g id="edge11" class="edge">
<title>fibos_tokens_action&#45;&gt;fibos_tokens</title>
<path fill="none" stroke="#000000" stroke-dasharray="5,2" d="M375.6053,-326.4415C388.5925,-310.6861 400.2847,-292.8724 407.379,-274 425.0506,-226.9895 420.6654,-209.4329 407.379,-161 403.6966,-147.5764 397.7934,-134.1302 391.059,-121.5648"/>
<polygon fill="none" stroke="#000000" points="393.9689,-119.5978 386.0282,-112.5838 387.8618,-123.0188 393.9689,-119.5978"/>
<text text-anchor="middle" x="438.5555" y="-214.5" font-family="Helvetica,sans-Serif" font-size="10.00" fill="#000000">token_to</text>
</g>
</g>
</svg>
