<?xml version="1.0" encoding="UTF-8" standalone="no"?>
<!DOCTYPE svg PUBLIC "-//W3C//DTD SVG 1.1//EN"
 "http://www.w3.org/Graphics/SVG/1.1/DTD/svg11.dtd">
<!-- Generated by graphviz version 2.40.1 (20161225.0304)
 -->
<!-- Title: %0 Pages: 1 -->
<svg width="513pt" height="652pt"
 viewBox="0.00 0.00 512.73 652.00" xmlns="http://www.w3.org/2000/svg" xmlns:xlink="http://www.w3.org/1999/xlink">
<g id="graph0" class="graph" transform="scale(1 1) rotate(0) translate(4 648)">
<title>%0</title>
<polygon fill="#ffffff" stroke="transparent" points="-4,4 -4,-648 508.732,-648 508.732,4 -4,4"/>
<!-- fibos_blocks -->
<g id="node1" class="node">
<title>fibos_blocks</title>
<g id="a_node1"><a xlink:title="fibos_blocks">
<polygon fill="#ffffff" stroke="#000000" points="0,-507.5 0,-643.5 130.758,-643.5 130.758,-507.5 0,-507.5"/>
<text text-anchor="middle" x="65.379" y="-630.5" font-family="Helvetica,sans-Serif" font-size="10.00" fill="#000000">fibos_blocks</text>
<polyline fill="none" stroke="#000000" points="0,-623.5 130.758,-623.5 "/>
<text text-anchor="start" x="8" y="-610.5" font-family="Helvetica,sans-Serif" font-size="10.00" fill="#000000">+ id : serial</text>
<text text-anchor="start" x="8" y="-598.5" font-family="Helvetica,sans-Serif" font-size="10.00" fill="#000000">+ block_num : integer</text>
<text text-anchor="start" x="8" y="-586.5" font-family="Helvetica,sans-Serif" font-size="10.00" fill="#000000">+ block_time : date</text>
<text text-anchor="start" x="8" y="-574.5" font-family="Helvetica,sans-Serif" font-size="10.00" fill="#000000">+ producer_block_id : text</text>
<text text-anchor="start" x="8" y="-562.5" font-family="Helvetica,sans-Serif" font-size="10.00" fill="#000000">+ previous : text</text>
<text text-anchor="start" x="8" y="-550.5" font-family="Helvetica,sans-Serif" font-size="10.00" fill="#000000">+ producer : text</text>
<text text-anchor="start" x="8" y="-538.5" font-family="Helvetica,sans-Serif" font-size="10.00" fill="#000000">+ status : enum</text>
<text text-anchor="start" x="8" y="-526.5" font-family="Helvetica,sans-Serif" font-size="10.00" fill="#000000">+ createdAt : date</text>
<text text-anchor="start" x="8" y="-514.5" font-family="Helvetica,sans-Serif" font-size="10.00" fill="#000000">+ updatedAt : date</text>
</a>
</g>
</g>
<!-- fibos_transactions -->
<g id="node2" class="node">
<title>fibos_transactions</title>
<g id="a_node2"><a xlink:title="fibos_transactions">
<polygon fill="#ffffff" stroke="#000000" points="0,-334.5 0,-446.5 130.758,-446.5 130.758,-334.5 0,-334.5"/>
<text text-anchor="middle" x="65.379" y="-433.5" font-family="Helvetica,sans-Serif" font-size="10.00" fill="#000000">fibos_transactions</text>
<polyline fill="none" stroke="#000000" points="0,-426.5 130.758,-426.5 "/>
<text text-anchor="start" x="8" y="-413.5" font-family="Helvetica,sans-Serif" font-size="10.00" fill="#000000">+ id : serial</text>
<text text-anchor="start" x="8" y="-401.5" font-family="Helvetica,sans-Serif" font-size="10.00" fill="#000000">+ producer_block_id : text</text>
<text text-anchor="start" x="8" y="-389.5" font-family="Helvetica,sans-Serif" font-size="10.00" fill="#000000">+ trx_id : text</text>
<text text-anchor="start" x="8" y="-377.5" font-family="Helvetica,sans-Serif" font-size="10.00" fill="#000000">+ rawData : object</text>
<text text-anchor="start" x="8" y="-365.5" font-family="Helvetica,sans-Serif" font-size="10.00" fill="#000000">+ contract_action : text</text>
<text text-anchor="start" x="8" y="-353.5" font-family="Helvetica,sans-Serif" font-size="10.00" fill="#000000">+ createdAt : date</text>
<text text-anchor="start" x="8" y="-341.5" font-family="Helvetica,sans-Serif" font-size="10.00" fill="#000000">+ updatedAt : date</text>
</a>
</g>
</g>
<!-- fibos_blocks&#45;&gt;fibos_transactions -->
<g id="edge1" class="edge">
<title>fibos_blocks&#45;&gt;fibos_transactions</title>
<path fill="none" stroke="#000000" stroke-dasharray="5,2" d="M33.3786,-507.3756C31.407,-501.2584 29.7204,-495.0785 28.478,-489 26.2802,-478.247 27.1482,-467.1138 29.7638,-456.3718"/>
<polygon fill="#000000" stroke="#000000" points="33.1625,-457.2196 32.6192,-446.6387 26.4456,-455.249 33.1625,-457.2196"/>
<text text-anchor="middle" x="56.3295" y="-480" font-family="Helvetica,sans-Serif" font-size="10.00" fill="#000000">transactions</text>
</g>
<!-- fibos_transactions&#45;&gt;fibos_blocks -->
<g id="edge2" class="edge">
<title>fibos_transactions&#45;&gt;fibos_blocks</title>
<path fill="none" stroke="#000000" stroke-dasharray="5,2" d="M78.0383,-446.5676C79.845,-456.649 81.4153,-467.0988 82.379,-477 83.0228,-483.6146 83.0936,-490.4545 82.7483,-497.3043"/>
<polygon fill="none" stroke="#000000" points="79.2553,-497.079 81.9631,-507.322 86.2339,-497.6261 79.2553,-497.079"/>
<text text-anchor="middle" x="95.0475" y="-480" font-family="Helvetica,sans-Serif" font-size="10.00" fill="#000000">block</text>
</g>
<!-- fibos_actions -->
<g id="node3" class="node">
<title>fibos_actions</title>
<g id="a_node3"><a xlink:title="fibos_actions">
<polygon fill="#ffffff" stroke="#000000" points="3.0495,-161.5 3.0495,-273.5 127.7085,-273.5 127.7085,-161.5 3.0495,-161.5"/>
<text text-anchor="middle" x="65.379" y="-260.5" font-family="Helvetica,sans-Serif" font-size="10.00" fill="#000000">fibos_actions</text>
<polyline fill="none" stroke="#000000" points="3.0495,-253.5 127.7085,-253.5 "/>
<text text-anchor="start" x="11.0495" y="-240.5" font-family="Helvetica,sans-Serif" font-size="10.00" fill="#000000">+ id : serial</text>
<text text-anchor="start" x="11.0495" y="-228.5" font-family="Helvetica,sans-Serif" font-size="10.00" fill="#000000">+ global_sequence : text</text>
<text text-anchor="start" x="11.0495" y="-216.5" font-family="Helvetica,sans-Serif" font-size="10.00" fill="#000000">+ trx_id : text</text>
<text text-anchor="start" x="11.0495" y="-204.5" font-family="Helvetica,sans-Serif" font-size="10.00" fill="#000000">+ contract_action : text</text>
<text text-anchor="start" x="11.0495" y="-192.5" font-family="Helvetica,sans-Serif" font-size="10.00" fill="#000000">+ rawData : object</text>
<text text-anchor="start" x="11.0495" y="-180.5" font-family="Helvetica,sans-Serif" font-size="10.00" fill="#000000">+ createdAt : date</text>
<text text-anchor="start" x="11.0495" y="-168.5" font-family="Helvetica,sans-Serif" font-size="10.00" fill="#000000">+ updatedAt : date</text>
</a>
</g>
</g>
<!-- fibos_transactions&#45;&gt;fibos_actions -->
<g id="edge3" class="edge">
<title>fibos_transactions&#45;&gt;fibos_actions</title>
<path fill="none" stroke="#000000" stroke-dasharray="5,2" d="M44.08,-334.3016C41.0327,-320.5518 39.5614,-305.8171 41.704,-292 42.1427,-289.1711 42.6698,-286.3026 43.2678,-283.4202"/>
<polygon fill="#000000" stroke="#000000" points="46.6945,-284.1366 45.5487,-273.604 39.8762,-282.5523 46.6945,-284.1366"/>
<text text-anchor="middle" x="55.7165" y="-295" font-family="Helvetica,sans-Serif" font-size="10.00" fill="#000000">action</text>
</g>
<!-- fibos_actions&#45;&gt;fibos_transactions -->
<g id="edge6" class="edge">
<title>fibos_actions&#45;&gt;fibos_transactions</title>
<path fill="none" stroke="#000000" stroke-dasharray="5,2" d="M67.8813,-273.6301C68.0856,-279.8275 68.2592,-286.0467 68.379,-292 68.5877,-302.37 68.5293,-313.3525 68.3186,-324.0758"/>
<polygon fill="none" stroke="#000000" points="64.8155,-324.1678 68.0737,-334.2491 71.8135,-324.3363 64.8155,-324.1678"/>
<text text-anchor="middle" x="93.8295" y="-295" font-family="Helvetica,sans-Serif" font-size="10.00" fill="#000000">transaction</text>
</g>
<!-- fibos_actions&#45;&gt;fibos_actions -->
<g id="edge4" class="edge">
<title>fibos_actions&#45;&gt;fibos_actions</title>
<path fill="none" stroke="#000000" stroke-dasharray="5,2" d="M128.0242,-224.4708C138.4881,-223.4955 145.7085,-221.1719 145.7085,-217.5 145.7085,-215.2051 142.888,-213.4368 138.218,-212.1952"/>
<polygon fill="#000000" stroke="#000000" points="138.4579,-208.6881 128.0242,-210.5292 137.3287,-215.5964 138.4579,-208.6881"/>
<text text-anchor="middle" x="159.046" y="-214.5" font-family="Helvetica,sans-Serif" font-size="10.00" fill="#000000">action</text>
</g>
<!-- fibos_actions&#45;&gt;fibos_actions -->
<g id="edge5" class="edge">
<title>fibos_actions&#45;&gt;fibos_actions</title>
<path fill="none" stroke="#000000" stroke-dasharray="5,2" d="M127.9612,-232.467C152.046,-232.9578 172.3835,-227.9688 172.3835,-217.5 172.3835,-208.5443 157.5,-203.5988 138.1193,-202.6636"/>
<polygon fill="none" stroke="#000000" points="138.0054,-199.1619 127.9612,-202.533 137.9153,-206.1614 138.0054,-199.1619"/>
<text text-anchor="middle" x="186.5555" y="-214.5" font-family="Helvetica,sans-Serif" font-size="10.00" fill="#000000">parent</text>
</g>
<!-- fibos_accounts -->
<g id="node4" class="node">
<title>fibos_accounts</title>
<g id="a_node4"><a xlink:title="fibos_accounts">
<polygon fill="#ffffff" stroke="#000000" points="235.383,-173.5 235.383,-261.5 333.375,-261.5 333.375,-173.5 235.383,-173.5"/>
<text text-anchor="middle" x="284.379" y="-248.5" font-family="Helvetica,sans-Serif" font-size="10.00" fill="#000000">fibos_accounts</text>
<polyline fill="none" stroke="#000000" points="235.383,-241.5 333.375,-241.5 "/>
<text text-anchor="start" x="243.383" y="-228.5" font-family="Helvetica,sans-Serif" font-size="10.00" fill="#000000">+ name : text</text>
<text text-anchor="start" x="243.383" y="-216.5" font-family="Helvetica,sans-Serif" font-size="10.00" fill="#000000">+ created : date</text>
<text text-anchor="start" x="243.383" y="-204.5" font-family="Helvetica,sans-Serif" font-size="10.00" fill="#000000">+ createdAt : date</text>
<text text-anchor="start" x="243.383" y="-192.5" font-family="Helvetica,sans-Serif" font-size="10.00" fill="#000000">+ updatedAt : date</text>
<text text-anchor="start" x="243.383" y="-180.5" font-family="Helvetica,sans-Serif" font-size="10.00" fill="#000000">+ id : serial</text>
</a>
</g>
</g>
<!-- fibos_accounts&#45;&gt;fibos_accounts -->
<g id="edge7" class="edge">
<title>fibos_accounts&#45;&gt;fibos_accounts</title>
<path fill="none" stroke="#000000" stroke-dasharray="5,2" d="M333.4565,-232.0157C343.8613,-230.5417 351.375,-225.7031 351.375,-217.5 351.375,-212.2449 348.2914,-208.3706 343.3394,-205.8771"/>
<polygon fill="none" stroke="#000000" points="344.037,-202.4345 333.4565,-202.9843 342.0706,-209.1526 344.037,-202.4345"/>
<text text-anchor="middle" x="366.932" y="-214.5" font-family="Helvetica,sans-Serif" font-size="10.00" fill="#000000">creator</text>
</g>
<!-- fibos_permissions -->
<g id="node5" class="node">
<title>fibos_permissions</title>
<g id="a_node5"><a xlink:title="fibos_permissions">
<polygon fill="#ffffff" stroke="#000000" points="195.383,-12.5 195.383,-100.5 293.375,-100.5 293.375,-12.5 195.383,-12.5"/>
<text text-anchor="middle" x="244.379" y="-87.5" font-family="Helvetica,sans-Serif" font-size="10.00" fill="#000000">fibos_permissions</text>
<polyline fill="none" stroke="#000000" points="195.383,-80.5 293.375,-80.5 "/>
<text text-anchor="start" x="203.383" y="-67.5" font-family="Helvetica,sans-Serif" font-size="10.00" fill="#000000">+ pub_key : text</text>
<text text-anchor="start" x="203.383" y="-55.5" font-family="Helvetica,sans-Serif" font-size="10.00" fill="#000000">+ permission : text</text>
<text text-anchor="start" x="203.383" y="-43.5" font-family="Helvetica,sans-Serif" font-size="10.00" fill="#000000">+ createdAt : date</text>
<text text-anchor="start" x="203.383" y="-31.5" font-family="Helvetica,sans-Serif" font-size="10.00" fill="#000000">+ updatedAt : date</text>
<text text-anchor="start" x="203.383" y="-19.5" font-family="Helvetica,sans-Serif" font-size="10.00" fill="#000000">+ id : serial</text>
</a>
</g>
</g>
<!-- fibos_accounts&#45;&gt;fibos_permissions -->
<g id="edge8" class="edge">
<title>fibos_accounts&#45;&gt;fibos_permissions</title>
<path fill="none" stroke="#000000" stroke-dasharray="5,2" d="M241.8905,-173.4825C236.839,-169.0538 231.6132,-164.7971 226.379,-161 212.4334,-150.8833 200.9632,-157.7421 192.047,-143 185.453,-132.0975 186.8068,-120.4226 192.1311,-109.2901"/>
<polygon fill="#000000" stroke="#000000" points="195.2321,-110.9183 197.1764,-100.5034 189.1617,-107.4326 195.2321,-110.9183"/>
<text text-anchor="middle" x="219.045" y="-134" font-family="Helvetica,sans-Serif" font-size="10.00" fill="#000000">permissions</text>
</g>
<!-- fibos_tokens -->
<g id="node6" class="node">
<title>fibos_tokens</title>
<g id="a_node6"><a xlink:title="fibos_tokens">
<polygon fill="#ffffff" stroke="#000000" points="341.4975,-.5 341.4975,-112.5 447.2605,-112.5 447.2605,-.5 341.4975,-.5"/>
<text text-anchor="middle" x="394.379" y="-99.5" font-family="Helvetica,sans-Serif" font-size="10.00" fill="#000000">fibos_tokens</text>
<polyline fill="none" stroke="#000000" points="341.4975,-92.5 447.2605,-92.5 "/>
<text text-anchor="start" x="349.4975" y="-79.5" font-family="Helvetica,sans-Serif" font-size="10.00" fill="#000000">+ token_name : text</text>
<text text-anchor="start" x="349.4975" y="-67.5" font-family="Helvetica,sans-Serif" font-size="10.00" fill="#000000">+ token_type : text</text>
<text text-anchor="start" x="349.4975" y="-55.5" font-family="Helvetica,sans-Serif" font-size="10.00" fill="#000000">+ token_status : text</text>
<text text-anchor="start" x="349.4975" y="-43.5" font-family="Helvetica,sans-Serif" font-size="10.00" fill="#000000">+ created : date</text>
<text text-anchor="start" x="349.4975" y="-31.5" font-family="Helvetica,sans-Serif" font-size="10.00" fill="#000000">+ createdAt : date</text>
<text text-anchor="start" x="349.4975" y="-19.5" font-family="Helvetica,sans-Serif" font-size="10.00" fill="#000000">+ updatedAt : date</text>
<text text-anchor="start" x="349.4975" y="-7.5" font-family="Helvetica,sans-Serif" font-size="10.00" fill="#000000">+ id : serial</text>
</a>
</g>
</g>
<!-- fibos_accounts&#45;&gt;fibos_tokens -->
<g id="edge9" class="edge">
<title>fibos_accounts&#45;&gt;fibos_tokens</title>
<path fill="none" stroke="#000000" stroke-dasharray="5,2" d="M302.473,-173.4424C309.0366,-159.3929 317.0462,-144.1028 325.923,-131 328.7446,-126.835 331.7918,-122.6695 334.9786,-118.5557"/>
<polygon fill="#000000" stroke="#000000" points="337.7341,-120.7141 341.2568,-110.722 332.2718,-116.3364 337.7341,-120.7141"/>
<text text-anchor="middle" x="337.607" y="-134" font-family="Helvetica,sans-Serif" font-size="10.00" fill="#000000">token</text>
</g>
<!-- fibos_permissions&#45;&gt;fibos_accounts -->
<g id="edge10" class="edge">
<title>fibos_permissions&#45;&gt;fibos_accounts</title>
<path fill="none" stroke="#000000" stroke-dasharray="5,2" d="M255.379,-100.7752C260.1839,-120.1146 265.8643,-142.9783 270.9186,-163.3219"/>
<polygon fill="none" stroke="#000000" points="267.535,-164.2188 273.3429,-173.0799 274.3284,-162.531 267.535,-164.2188"/>
<text text-anchor="middle" x="283.8865" y="-134" font-family="Helvetica,sans-Serif" font-size="10.00" fill="#000000">account</text>
</g>
<!-- fibos_tokens&#45;&gt;fibos_accounts -->
<g id="edge11" class="edge">
<title>fibos_tokens&#45;&gt;fibos_accounts</title>
<path fill="none" stroke="#000000" stroke-dasharray="5,2" d="M368.4755,-112.6107C362.954,-122.9873 356.827,-133.5297 350.379,-143 345.237,-150.5522 339.4035,-158.1629 333.3835,-165.4857"/>
<polygon fill="none" stroke="#000000" points="330.5655,-163.3985 326.8019,-173.3024 335.9202,-167.9071 330.5655,-163.3985"/>
<text text-anchor="middle" x="372.936" y="-134" font-family="Helvetica,sans-Serif" font-size="10.00" fill="#000000">creator</text>
</g>
<!-- fibos_tokens_action -->
<g id="node7" class="node">
<title>fibos_tokens_action</title>
<g id="a_node7"><a xlink:title="fibos_tokens_action">
<polygon fill="#ffffff" stroke="#000000" points="284.2755,-322.5 284.2755,-458.5 424.4825,-458.5 424.4825,-322.5 284.2755,-322.5"/>
<text text-anchor="middle" x="354.379" y="-445.5" font-family="Helvetica,sans-Serif" font-size="10.00" fill="#000000">fibos_tokens_action</text>
<polyline fill="none" stroke="#000000" points="284.2755,-438.5 424.4825,-438.5 "/>
<text text-anchor="start" x="292.2755" y="-425.5" font-family="Helvetica,sans-Serif" font-size="10.00" fill="#000000">+ account_from_name : text</text>
<text text-anchor="start" x="292.2755" y="-413.5" font-family="Helvetica,sans-Serif" font-size="10.00" fill="#000000">+ account_to_name : text</text>
<text text-anchor="start" x="292.2755" y="-401.5" font-family="Helvetica,sans-Serif" font-size="10.00" fill="#000000">+ token_from_name : text</text>
<text text-anchor="start" x="292.2755" y="-389.5" font-family="Helvetica,sans-Serif" font-size="10.00" fill="#000000">+ token_to_name : text</text>
<text text-anchor="start" x="292.2755" y="-377.5" font-family="Helvetica,sans-Serif" font-size="10.00" fill="#000000">+ contract_action : text</text>
<text text-anchor="start" x="292.2755" y="-365.5" font-family="Helvetica,sans-Serif" font-size="10.00" fill="#000000">+ global_sequence : text</text>
<text text-anchor="start" x="292.2755" y="-353.5" font-family="Helvetica,sans-Serif" font-size="10.00" fill="#000000">+ createdAt : date</text>
<text text-anchor="start" x="292.2755" y="-341.5" font-family="Helvetica,sans-Serif" font-size="10.00" fill="#000000">+ updatedAt : date</text>
<text text-anchor="start" x="292.2755" y="-329.5" font-family="Helvetica,sans-Serif" font-size="10.00" fill="#000000">+ id : serial</text>
</a>
</g>
</g>
<!-- fibos_tokens_action&#45;&gt;fibos_actions -->
<g id="edge16" class="edge">
<title>fibos_tokens_action&#45;&gt;fibos_actions</title>
<path fill="none" stroke="#000000" stroke-dasharray="5,2" d="M284.0512,-348.4007C239.4096,-321.6775 181.8099,-287.1974 136.9337,-260.3338"/>
<polygon fill="none" stroke="#000000" points="138.5136,-257.2004 128.1357,-255.0672 134.9182,-263.2065 138.5136,-257.2004"/>
<text text-anchor="middle" x="223.7165" y="-295" font-family="Helvetica,sans-Serif" font-size="10.00" fill="#000000">action</text>
</g>
<!-- fibos_tokens_action&#45;&gt;fibos_accounts -->
<g id="edge12" class="edge">
<title>fibos_tokens_action&#45;&gt;fibos_accounts</title>
<path fill="none" stroke="#000000" stroke-dasharray="5,2" d="M284.1832,-326.6649C279.2445,-319.4905 274.9748,-311.9014 271.809,-304 267.7471,-293.8621 266.9625,-282.588 267.9335,-271.6177"/>
<polygon fill="none" stroke="#000000" points="271.4071,-272.0477 269.2751,-261.6696 264.4699,-271.1121 271.4071,-272.0477"/>
<text text-anchor="middle" x="302.664" y="-295" font-family="Helvetica,sans-Serif" font-size="10.00" fill="#000000">account_from</text>
</g>
<!-- fibos_tokens_action&#45;&gt;fibos_accounts -->
<g id="edge13" class="edge">
<title>fibos_tokens_action&#45;&gt;fibos_accounts</title>
<path fill="none" stroke="#000000" stroke-dasharray="5,2" d="M342.5008,-322.4906C339.7418,-312.087 336.401,-301.6186 332.379,-292 329.3741,-284.8137 325.6805,-277.5562 321.6882,-270.5367"/>
<polygon fill="none" stroke="#000000" points="324.6143,-268.6092 316.5008,-261.7959 318.5946,-272.1818 324.6143,-268.6092"/>
<text text-anchor="middle" x="359.835" y="-295" font-family="Helvetica,sans-Serif" font-size="10.00" fill="#000000">account_to</text>
</g>
<!-- fibos_tokens_action&#45;&gt;fibos_tokens -->
<g id="edge14" class="edge">
<title>fibos_tokens_action&#45;&gt;fibos_tokens</title>
<path fill="none" stroke="#000000" stroke-dasharray="5,2" d="M383.2209,-322.1179C385.1771,-316.0567 386.9388,-309.9601 388.379,-304 402.8765,-244.0027 402.9969,-173.4348 400.3083,-123.0356"/>
<polygon fill="none" stroke="#000000" points="403.7944,-122.6949 399.7164,-112.9163 396.8064,-123.1037 403.7944,-122.6949"/>
<text text-anchor="middle" x="426.3845" y="-214.5" font-family="Helvetica,sans-Serif" font-size="10.00" fill="#000000">token_from</text>
</g>
<!-- fibos_tokens_action&#45;&gt;fibos_tokens -->
<g id="edge15" class="edge">
<title>fibos_tokens_action&#45;&gt;fibos_tokens</title>
<path fill="none" stroke="#000000" stroke-dasharray="5,2" d="M424.6965,-325.3997C437.2469,-309.8853 448.501,-292.4334 455.379,-274 472.9359,-226.9465 468.4932,-209.4798 455.379,-161 451.7595,-147.6195 445.9532,-134.1941 439.328,-121.636"/>
<polygon fill="none" stroke="#000000" points="442.2716,-119.7257 434.3786,-112.658 436.1414,-123.1052 442.2716,-119.7257"/>
<text text-anchor="middle" x="485.5555" y="-214.5" font-family="Helvetica,sans-Serif" font-size="10.00" fill="#000000">token_to</text>
</g>
</g>
</svg>
