<?xml version="1.0" encoding="UTF-8" standalone="no"?>
<!DOCTYPE svg PUBLIC "-//W3C//DTD SVG 1.1//EN"
 "http://www.w3.org/Graphics/SVG/1.1/DTD/svg11.dtd">
<!-- Generated by graphviz version 2.40.1 (20161225.0304)
 -->
<!-- Title: %0 Pages: 1 -->
<svg width="630pt" height="628pt"
 viewBox="0.00 0.00 630.05 628.00" xmlns="http://www.w3.org/2000/svg" xmlns:xlink="http://www.w3.org/1999/xlink">
<g id="graph0" class="graph" transform="scale(1 1) rotate(0) translate(4 624)">
<title>%0</title>
<polygon fill="#ffffff" stroke="transparent" points="-4,4 -4,-624 626.054,-624 626.054,4 -4,4"/>
<!-- fibos_blocks -->
<g id="node1" class="node">
<title>fibos_blocks</title>
<g id="a_node1"><a xlink:title="fibos_blocks">
<polygon fill="#ffffff" stroke="#000000" points="0,-483.5 0,-619.5 130.758,-619.5 130.758,-483.5 0,-483.5"/>
<text text-anchor="middle" x="65.379" y="-606.5" font-family="Helvetica,sans-Serif" font-size="10.00" fill="#000000">fibos_blocks</text>
<polyline fill="none" stroke="#000000" points="0,-599.5 130.758,-599.5 "/>
<text text-anchor="start" x="8" y="-586.5" font-family="Helvetica,sans-Serif" font-size="10.00" fill="#000000">+ id : serial</text>
<text text-anchor="start" x="8" y="-574.5" font-family="Helvetica,sans-Serif" font-size="10.00" fill="#000000">+ block_num : integer</text>
<text text-anchor="start" x="8" y="-562.5" font-family="Helvetica,sans-Serif" font-size="10.00" fill="#000000">+ block_time : date</text>
<text text-anchor="start" x="8" y="-550.5" font-family="Helvetica,sans-Serif" font-size="10.00" fill="#000000">+ producer_block_id : text</text>
<text text-anchor="start" x="8" y="-538.5" font-family="Helvetica,sans-Serif" font-size="10.00" fill="#000000">+ previous : text</text>
<text text-anchor="start" x="8" y="-526.5" font-family="Helvetica,sans-Serif" font-size="10.00" fill="#000000">+ producer : text</text>
<text text-anchor="start" x="8" y="-514.5" font-family="Helvetica,sans-Serif" font-size="10.00" fill="#000000">+ status : enum</text>
<text text-anchor="start" x="8" y="-502.5" font-family="Helvetica,sans-Serif" font-size="10.00" fill="#000000">+ createdAt : date</text>
<text text-anchor="start" x="8" y="-490.5" font-family="Helvetica,sans-Serif" font-size="10.00" fill="#000000">+ updatedAt : date</text>
</a>
</g>
</g>
<!-- fibos_transactions -->
<g id="node2" class="node">
<title>fibos_transactions</title>
<g id="a_node2"><a xlink:title="fibos_transactions">
<polygon fill="#ffffff" stroke="#000000" points="0,-322.5 0,-434.5 130.758,-434.5 130.758,-322.5 0,-322.5"/>
<text text-anchor="middle" x="65.379" y="-421.5" font-family="Helvetica,sans-Serif" font-size="10.00" fill="#000000">fibos_transactions</text>
<polyline fill="none" stroke="#000000" points="0,-414.5 130.758,-414.5 "/>
<text text-anchor="start" x="8" y="-401.5" font-family="Helvetica,sans-Serif" font-size="10.00" fill="#000000">+ id : number</text>
<text text-anchor="start" x="8" y="-389.5" font-family="Helvetica,sans-Serif" font-size="10.00" fill="#000000">+ producer_block_id : text</text>
<text text-anchor="start" x="8" y="-377.5" font-family="Helvetica,sans-Serif" font-size="10.00" fill="#000000">+ trx_id : text</text>
<text text-anchor="start" x="8" y="-365.5" font-family="Helvetica,sans-Serif" font-size="10.00" fill="#000000">+ rawData : object</text>
<text text-anchor="start" x="8" y="-353.5" font-family="Helvetica,sans-Serif" font-size="10.00" fill="#000000">+ contract_action : text</text>
<text text-anchor="start" x="8" y="-341.5" font-family="Helvetica,sans-Serif" font-size="10.00" fill="#000000">+ createdAt : date</text>
<text text-anchor="start" x="8" y="-329.5" font-family="Helvetica,sans-Serif" font-size="10.00" fill="#000000">+ updatedAt : date</text>
</a>
</g>
</g>
<!-- fibos_blocks&#45;&gt;fibos_transactions -->
<g id="edge1" class="edge">
<title>fibos_blocks&#45;&gt;fibos_transactions</title>
<path fill="none" stroke="#000000" stroke-dasharray="5,2" d="M28.7349,-483.3102C26.6018,-473.2715 26.1472,-462.9572 28.478,-453 29.1411,-450.1673 29.9285,-447.3188 30.8166,-444.4746"/>
<polygon fill="#000000" stroke="#000000" points="34.1853,-445.4447 34.1895,-434.8499 27.5792,-443.1296 34.1853,-445.4447"/>
<text text-anchor="middle" x="56.3295" y="-456" font-family="Helvetica,sans-Serif" font-size="10.00" fill="#000000">transactions</text>
</g>
<!-- fibos_transactions&#45;&gt;fibos_blocks -->
<g id="edge2" class="edge">
<title>fibos_transactions&#45;&gt;fibos_blocks</title>
<path fill="none" stroke="#000000" stroke-dasharray="5,2" d="M79.6259,-434.8131C80.7521,-440.9188 81.7107,-447.0676 82.379,-453 83.1229,-459.6041 83.2638,-466.4366 82.9655,-473.2815"/>
<polygon fill="none" stroke="#000000" points="79.4721,-473.0649 82.2331,-483.2936 86.4534,-473.5756 79.4721,-473.0649"/>
<text text-anchor="middle" x="95.0475" y="-456" font-family="Helvetica,sans-Serif" font-size="10.00" fill="#000000">block</text>
</g>
<!-- fibos_actions -->
<g id="node3" class="node">
<title>fibos_actions</title>
<g id="a_node3"><a xlink:title="fibos_actions">
<polygon fill="#ffffff" stroke="#000000" points="2.0495,-161.5 2.0495,-273.5 126.7085,-273.5 126.7085,-161.5 2.0495,-161.5"/>
<text text-anchor="middle" x="64.379" y="-260.5" font-family="Helvetica,sans-Serif" font-size="10.00" fill="#000000">fibos_actions</text>
<polyline fill="none" stroke="#000000" points="2.0495,-253.5 126.7085,-253.5 "/>
<text text-anchor="start" x="10.0495" y="-240.5" font-family="Helvetica,sans-Serif" font-size="10.00" fill="#000000">+ id : number</text>
<text text-anchor="start" x="10.0495" y="-228.5" font-family="Helvetica,sans-Serif" font-size="10.00" fill="#000000">+ global_sequence : text</text>
<text text-anchor="start" x="10.0495" y="-216.5" font-family="Helvetica,sans-Serif" font-size="10.00" fill="#000000">+ trx_id : text</text>
<text text-anchor="start" x="10.0495" y="-204.5" font-family="Helvetica,sans-Serif" font-size="10.00" fill="#000000">+ contract_action : text</text>
<text text-anchor="start" x="10.0495" y="-192.5" font-family="Helvetica,sans-Serif" font-size="10.00" fill="#000000">+ rawData : object</text>
<text text-anchor="start" x="10.0495" y="-180.5" font-family="Helvetica,sans-Serif" font-size="10.00" fill="#000000">+ createdAt : date</text>
<text text-anchor="start" x="10.0495" y="-168.5" font-family="Helvetica,sans-Serif" font-size="10.00" fill="#000000">+ updatedAt : date</text>
</a>
</g>
</g>
<!-- fibos_transactions&#45;&gt;fibos_actions -->
<g id="edge3" class="edge">
<title>fibos_transactions&#45;&gt;fibos_actions</title>
<path fill="none" stroke="#000000" stroke-dasharray="5,2" d="M42.9246,-322.0989C41.2047,-316.0649 39.7381,-309.9557 38.704,-304 37.5517,-297.3634 37.5109,-290.5158 38.2406,-283.7153"/>
<polygon fill="#000000" stroke="#000000" points="41.7007,-284.2425 39.8215,-273.8156 34.7883,-283.1386 41.7007,-284.2425"/>
<text text-anchor="middle" x="55.2165" y="-295" font-family="Helvetica,sans-Serif" font-size="10.00" fill="#000000">actions</text>
</g>
<!-- fibos_actions&#45;&gt;fibos_transactions -->
<g id="edge6" class="edge">
<title>fibos_actions&#45;&gt;fibos_transactions</title>
<path fill="none" stroke="#000000" stroke-dasharray="5,2" d="M69.3834,-273.6082C69.7919,-279.8097 70.1392,-286.0359 70.379,-292 70.6368,-298.4114 70.6698,-305.0877 70.5458,-311.7628"/>
<polygon fill="none" stroke="#000000" points="67.0339,-312.1121 70.2316,-322.2128 74.0307,-312.3225 67.0339,-312.1121"/>
<text text-anchor="middle" x="95.8295" y="-295" font-family="Helvetica,sans-Serif" font-size="10.00" fill="#000000">transaction</text>
</g>
<!-- fibos_actions&#45;&gt;fibos_actions -->
<g id="edge4" class="edge">
<title>fibos_actions&#45;&gt;fibos_actions</title>
<path fill="none" stroke="#000000" stroke-dasharray="5,2" d="M127.0242,-224.4708C137.4881,-223.4955 144.7085,-221.1719 144.7085,-217.5 144.7085,-215.2051 141.888,-213.4368 137.218,-212.1952"/>
<polygon fill="#000000" stroke="#000000" points="137.4579,-208.6881 127.0242,-210.5292 136.3287,-215.5964 137.4579,-208.6881"/>
<text text-anchor="middle" x="172.4925" y="-214.5" font-family="Helvetica,sans-Serif" font-size="10.00" fill="#000000">inline_action</text>
</g>
<!-- fibos_actions&#45;&gt;fibos_actions -->
<g id="edge5" class="edge">
<title>fibos_actions&#45;&gt;fibos_actions</title>
<path fill="none" stroke="#000000" stroke-dasharray="5,2" d="M126.8054,-231.9278C163.4424,-234.2624 200.2765,-229.4531 200.2765,-217.5 200.2765,-206.6675 170.0251,-201.7021 137.0842,-202.604"/>
<polygon fill="none" stroke="#000000" points="136.6357,-199.1207 126.8054,-203.0722 136.9543,-206.1134 136.6357,-199.1207"/>
<text text-anchor="middle" x="214.4485" y="-214.5" font-family="Helvetica,sans-Serif" font-size="10.00" fill="#000000">parent</text>
</g>
<!-- fibos_accounts -->
<g id="node4" class="node">
<title>fibos_accounts</title>
<g id="a_node4"><a xlink:title="fibos_accounts">
<polygon fill="#ffffff" stroke="#000000" points="263.383,-179.5 263.383,-255.5 361.375,-255.5 361.375,-179.5 263.383,-179.5"/>
<text text-anchor="middle" x="312.379" y="-242.5" font-family="Helvetica,sans-Serif" font-size="10.00" fill="#000000">fibos_accounts</text>
<polyline fill="none" stroke="#000000" points="263.383,-235.5 361.375,-235.5 "/>
<text text-anchor="start" x="271.383" y="-222.5" font-family="Helvetica,sans-Serif" font-size="10.00" fill="#000000">+ id : text</text>
<text text-anchor="start" x="271.383" y="-210.5" font-family="Helvetica,sans-Serif" font-size="10.00" fill="#000000">+ created : date</text>
<text text-anchor="start" x="271.383" y="-198.5" font-family="Helvetica,sans-Serif" font-size="10.00" fill="#000000">+ createdAt : date</text>
<text text-anchor="start" x="271.383" y="-186.5" font-family="Helvetica,sans-Serif" font-size="10.00" fill="#000000">+ updatedAt : date</text>
</a>
</g>
</g>
<!-- fibos_accounts&#45;&gt;fibos_accounts -->
<g id="edge7" class="edge">
<title>fibos_accounts&#45;&gt;fibos_accounts</title>
<path fill="none" stroke="#000000" stroke-dasharray="5,2" d="M361.4565,-232.0157C371.8613,-230.5417 379.375,-225.7031 379.375,-217.5 379.375,-212.2449 376.2914,-208.3706 371.3394,-205.8771"/>
<polygon fill="none" stroke="#000000" points="372.037,-202.4345 361.4565,-202.9843 370.0706,-209.1526 372.037,-202.4345"/>
<text text-anchor="middle" x="394.932" y="-214.5" font-family="Helvetica,sans-Serif" font-size="10.00" fill="#000000">creator</text>
</g>
<!-- fibos_permissions -->
<g id="node5" class="node">
<title>fibos_permissions</title>
<g id="a_node5"><a xlink:title="fibos_permissions">
<polygon fill="#ffffff" stroke="#000000" points="208.383,-12.5 208.383,-100.5 306.375,-100.5 306.375,-12.5 208.383,-12.5"/>
<text text-anchor="middle" x="257.379" y="-87.5" font-family="Helvetica,sans-Serif" font-size="10.00" fill="#000000">fibos_permissions</text>
<polyline fill="none" stroke="#000000" points="208.383,-80.5 306.375,-80.5 "/>
<text text-anchor="start" x="216.383" y="-67.5" font-family="Helvetica,sans-Serif" font-size="10.00" fill="#000000">+ pub_key : text</text>
<text text-anchor="start" x="216.383" y="-55.5" font-family="Helvetica,sans-Serif" font-size="10.00" fill="#000000">+ permission : text</text>
<text text-anchor="start" x="216.383" y="-43.5" font-family="Helvetica,sans-Serif" font-size="10.00" fill="#000000">+ createdAt : date</text>
<text text-anchor="start" x="216.383" y="-31.5" font-family="Helvetica,sans-Serif" font-size="10.00" fill="#000000">+ updatedAt : date</text>
<text text-anchor="start" x="216.383" y="-19.5" font-family="Helvetica,sans-Serif" font-size="10.00" fill="#000000">+ id : number</text>
</a>
</g>
</g>
<!-- fibos_accounts&#45;&gt;fibos_permissions -->
<g id="edge8" class="edge">
<title>fibos_accounts&#45;&gt;fibos_permissions</title>
<path fill="none" stroke="#000000" stroke-dasharray="5,2" d="M276.3669,-179.3328C269.3816,-172.8422 261.8889,-166.448 254.379,-161 240.4334,-150.8833 228.9632,-157.7421 220.047,-143 213.8307,-132.722 214.253,-121.2226 218.0167,-110.0483"/>
<polygon fill="#000000" stroke="#000000" points="221.2665,-111.3487 221.8917,-100.7723 214.8075,-108.6504 221.2665,-111.3487"/>
<text text-anchor="middle" x="247.045" y="-134" font-family="Helvetica,sans-Serif" font-size="10.00" fill="#000000">permissions</text>
</g>
<!-- fibos_tokens -->
<g id="node6" class="node">
<title>fibos_tokens</title>
<g id="a_node6"><a xlink:title="fibos_tokens">
<polygon fill="#ffffff" stroke="#000000" points="393.4975,-.5 393.4975,-112.5 499.2605,-112.5 499.2605,-.5 393.4975,-.5"/>
<text text-anchor="middle" x="446.379" y="-99.5" font-family="Helvetica,sans-Serif" font-size="10.00" fill="#000000">fibos_tokens</text>
<polyline fill="none" stroke="#000000" points="393.4975,-92.5 499.2605,-92.5 "/>
<text text-anchor="start" x="401.4975" y="-79.5" font-family="Helvetica,sans-Serif" font-size="10.00" fill="#000000">+ token_name : text</text>
<text text-anchor="start" x="401.4975" y="-67.5" font-family="Helvetica,sans-Serif" font-size="10.00" fill="#000000">+ token_type : text</text>
<text text-anchor="start" x="401.4975" y="-55.5" font-family="Helvetica,sans-Serif" font-size="10.00" fill="#000000">+ token_status : text</text>
<text text-anchor="start" x="401.4975" y="-43.5" font-family="Helvetica,sans-Serif" font-size="10.00" fill="#000000">+ created : date</text>
<text text-anchor="start" x="401.4975" y="-31.5" font-family="Helvetica,sans-Serif" font-size="10.00" fill="#000000">+ createdAt : date</text>
<text text-anchor="start" x="401.4975" y="-19.5" font-family="Helvetica,sans-Serif" font-size="10.00" fill="#000000">+ updatedAt : date</text>
<text text-anchor="start" x="401.4975" y="-7.5" font-family="Helvetica,sans-Serif" font-size="10.00" fill="#000000">+ id : number</text>
</a>
</g>
</g>
<!-- fibos_accounts&#45;&gt;fibos_tokens -->
<g id="edge9" class="edge">
<title>fibos_accounts&#45;&gt;fibos_tokens</title>
<path fill="none" stroke="#000000" stroke-dasharray="5,2" d="M352.2515,-179.174C363.3638,-167.8709 375.1777,-155.242 385.379,-143 391.1671,-136.054 396.9837,-128.5826 402.6039,-121.0445"/>
<polygon fill="#000000" stroke="#000000" points="405.5162,-122.9919 408.6148,-112.8603 399.8743,-118.8482 405.5162,-122.9919"/>
<text text-anchor="middle" x="406.607" y="-134" font-family="Helvetica,sans-Serif" font-size="10.00" fill="#000000">token</text>
</g>
<!-- fibos_permissions&#45;&gt;fibos_accounts -->
<g id="edge10" class="edge">
<title>fibos_permissions&#45;&gt;fibos_accounts</title>
<path fill="none" stroke="#000000" stroke-dasharray="5,2" d="M272.4614,-100.6503C279.7662,-122.0335 288.5507,-147.7481 296.0171,-169.6042"/>
<polygon fill="none" stroke="#000000" points="292.7999,-171.0137 299.3448,-179.3452 299.4241,-168.7507 292.7999,-171.0137"/>
<text text-anchor="middle" x="304.8865" y="-134" font-family="Helvetica,sans-Serif" font-size="10.00" fill="#000000">account</text>
</g>
<!-- fibos_tokens&#45;&gt;fibos_accounts -->
<g id="edge11" class="edge">
<title>fibos_tokens&#45;&gt;fibos_accounts</title>
<path fill="none" stroke="#000000" stroke-dasharray="5,2" d="M393.2845,-90.1897C377.9778,-101.7508 362.2062,-115.681 350.265,-131 341.2622,-142.5494 333.9296,-156.5697 328.1977,-169.9306"/>
<polygon fill="none" stroke="#000000" points="324.8318,-168.9164 324.3058,-179.4982 331.3159,-171.554 324.8318,-168.9164"/>
<text text-anchor="middle" x="365.936" y="-134" font-family="Helvetica,sans-Serif" font-size="10.00" fill="#000000">creator</text>
</g>
<!-- fibos_tokens_action -->
<g id="node7" class="node">
<title>fibos_tokens_action</title>
<g id="a_node7"><a xlink:title="fibos_tokens_action">
<polygon fill="#ffffff" stroke="#000000" points="349.944,-340.5 349.944,-416.5 466.814,-416.5 466.814,-340.5 349.944,-340.5"/>
<text text-anchor="middle" x="408.379" y="-403.5" font-family="Helvetica,sans-Serif" font-size="10.00" fill="#000000">fibos_tokens_action</text>
<polyline fill="none" stroke="#000000" points="349.944,-396.5 466.814,-396.5 "/>
<text text-anchor="start" x="357.944" y="-383.5" font-family="Helvetica,sans-Serif" font-size="10.00" fill="#000000">+ contract_action : text</text>
<text text-anchor="start" x="357.944" y="-371.5" font-family="Helvetica,sans-Serif" font-size="10.00" fill="#000000">+ createdAt : date</text>
<text text-anchor="start" x="357.944" y="-359.5" font-family="Helvetica,sans-Serif" font-size="10.00" fill="#000000">+ updatedAt : date</text>
<text text-anchor="start" x="357.944" y="-347.5" font-family="Helvetica,sans-Serif" font-size="10.00" fill="#000000">+ id : number</text>
</a>
</g>
</g>
<!-- fibos_tokens&#45;&gt;fibos_tokens_action -->
<g id="edge12" class="edge">
<title>fibos_tokens&#45;&gt;fibos_tokens_action</title>
<path fill="none" stroke="#000000" stroke-dasharray="5,2" d="M499.5605,-84.4995C527.3845,-102.3139 558.8212,-128.2144 574.379,-161 595.9098,-206.3728 596.8391,-229.0799 574.379,-274 554.7935,-313.171 512.9945,-339.3581 476.2425,-355.7211"/>
<polygon fill="#000000" stroke="#000000" points="474.8371,-352.5155 467.0241,-359.6715 477.5943,-358.9496 474.8371,-352.5155"/>
<text text-anchor="middle" x="606.2165" y="-214.5" font-family="Helvetica,sans-Serif" font-size="10.00" fill="#000000">actions</text>
</g>
<!-- fibos_tokens_action&#45;&gt;fibos_actions -->
<g id="edge17" class="edge">
<title>fibos_tokens_action&#45;&gt;fibos_actions</title>
<path fill="none" stroke="#000000" stroke-dasharray="5,2" d="M349.6342,-351.006C290.5573,-323.3567 199.3917,-280.6891 136.0855,-251.0603"/>
<polygon fill="none" stroke="#000000" points="137.4953,-247.8558 126.9545,-246.7868 134.528,-254.1958 137.4953,-247.8558"/>
<text text-anchor="middle" x="260.7165" y="-295" font-family="Helvetica,sans-Serif" font-size="10.00" fill="#000000">action</text>
</g>
<!-- fibos_tokens_action&#45;&gt;fibos_accounts -->
<g id="edge13" class="edge">
<title>fibos_tokens_action&#45;&gt;fibos_accounts</title>
<path fill="none" stroke="#000000" stroke-dasharray="5,2" d="M385.6283,-340.3452C372.0483,-317.5704 354.6989,-288.4741 340.294,-264.3157"/>
<polygon fill="none" stroke="#000000" points="343.2601,-262.4561 335.1325,-255.6595 337.2478,-266.0411 343.2601,-262.4561"/>
<text text-anchor="middle" x="393.664" y="-295" font-family="Helvetica,sans-Serif" font-size="10.00" fill="#000000">account_from</text>
</g>
<!-- fibos_tokens_action&#45;&gt;fibos_accounts -->
<g id="edge14" class="edge">
<title>fibos_tokens_action&#45;&gt;fibos_accounts</title>
<path fill="none" stroke="#000000" stroke-dasharray="5,2" d="M349.8553,-350.0341C332.3281,-338.3657 315.1966,-323.0549 305.467,-304 299.5746,-292.46 298.4217,-278.9106 299.4888,-266.0044"/>
<polygon fill="none" stroke="#000000" points="302.9915,-266.2023 300.7723,-255.8425 296.0467,-265.325 302.9915,-266.2023"/>
<text text-anchor="middle" x="330.835" y="-295" font-family="Helvetica,sans-Serif" font-size="10.00" fill="#000000">account_to</text>
</g>
<!-- fibos_tokens_action&#45;&gt;fibos_tokens -->
<g id="edge15" class="edge">
<title>fibos_tokens_action&#45;&gt;fibos_tokens</title>
<path fill="none" stroke="#000000" stroke-dasharray="5,2" d="M447.1999,-340.4827C463.2417,-322.0904 480.0202,-298.6695 488.379,-274 504.4958,-226.434 497.9171,-210.3082 488.379,-161 485.8785,-148.0735 481.7877,-134.7173 477.1161,-122.0518"/>
<polygon fill="none" stroke="#000000" points="480.3057,-120.5949 473.4472,-112.5195 473.7729,-123.1094 480.3057,-120.5949"/>
<text text-anchor="middle" x="522.3845" y="-214.5" font-family="Helvetica,sans-Serif" font-size="10.00" fill="#000000">token_from</text>
</g>
<!-- fibos_tokens_action&#45;&gt;fibos_tokens -->
<g id="edge16" class="edge">
<title>fibos_tokens_action&#45;&gt;fibos_tokens</title>
<path fill="none" stroke="#000000" stroke-dasharray="5,2" d="M420.1676,-340.1404C423.3021,-328.6203 426.3703,-315.8842 428.379,-304 438.6562,-243.1951 443.0681,-173.01 444.9607,-122.9439"/>
<polygon fill="none" stroke="#000000" points="448.4604,-123.0101 445.3171,-112.8923 441.4648,-122.762 448.4604,-123.0101"/>
<text text-anchor="middle" x="461.5555" y="-214.5" font-family="Helvetica,sans-Serif" font-size="10.00" fill="#000000">token_to</text>
</g>
</g>
</svg>
